<svg xmlns="http://www.w3.org/2000/svg" width="58" height="29" viewBox="0 0 58 29">
  <defs>
    <style>
      .cls-1 {
        fill: #fff;
        fill-rule: evenodd;
      }
    </style>
  </defs>
  <path class="cls-1" d="M2.141,4.989A12.315,12.315,0,0,1,7.273,1.3,19.141,19.141,0,0,1,14.49,0a17.746,17.746,0,0,1,6.663,1.166,10.322,10.322,0,0,1,4.495,3.268,7.729,7.729,0,0,1,1.6,4.8A7.3,7.3,0,0,1,26.1,13.19a13.339,13.339,0,0,1-3.571,3.573,44.617,44.617,0,0,1-6.415,3.694l-3.673,1.851H28v6.072H0.591V23.049l11.888-6.72q2.879-1.629,4.374-2.694a8.753,8.753,0,0,0,2.123-1.972A3.412,3.412,0,0,0,19.6,9.682a3.239,3.239,0,0,0-1.4-2.749,6.66,6.66,0,0,0-3.987-1.027A7.427,7.427,0,0,0,9.46,7.211a4.793,4.793,0,0,0-1.818,3.4H0A9.846,9.846,0,0,1,2.141,4.989ZM55.818,0.61v5.7H39.261l-0.923,6.054a11.091,11.091,0,0,1,3.526-1.824,15.211,15.211,0,0,1,4.652-.657A14.717,14.717,0,0,1,52.6,11.052a9.272,9.272,0,0,1,4,3.24,8.262,8.262,0,0,1,1.4,4.74,8.688,8.688,0,0,1-1.615,5.184,10.461,10.461,0,0,1-4.661,3.518,18.778,18.778,0,0,1-7.2,1.259,19.4,19.4,0,0,1-7.06-1.194,11.839,11.839,0,0,1-4.836-3.258A8.064,8.064,0,0,1,30.641,19.9h7.623a3.507,3.507,0,0,0,1.984,2.323,9.23,9.23,0,0,0,4.273.861,8.982,8.982,0,0,0,3.129-.491,4.329,4.329,0,0,0,2.012-1.407,3.508,3.508,0,0,0,.692-2.175,3.587,3.587,0,0,0-.646-2.12,4.156,4.156,0,0,0-1.92-1.426,8.258,8.258,0,0,0-3.064-.509A9.675,9.675,0,0,0,41,15.625a8.592,8.592,0,0,0-2.658,1.666H31.73l2.4-16.681H55.818Z"/>
</svg>
