<svg xmlns="http://www.w3.org/2000/svg" width="21" height="16" viewBox="0 0 21 16"><defs><style>.cls-1{fill:#111;fill-rule:evenodd}</style></defs><path class="cls-1" d="M9.986 1A10.633 10.633.0 00.006 8.3a.626.626.0 000 .4A10.633 10.633.0 009.986 16a10.633 10.633.0 009.98-7.3.625.625.0 000-.4A10.633 10.633.0 009.986 1h0zm0 13.75A9.373 9.373.0 011.262 8.5 9.373 9.373.0 019.986 2.25 9.373 9.373.0 0118.71 8.5 9.373 9.373.0 019.986 14.75zm0-10A3.75 3.75.0 1013.742 8.5 3.757 3.757.0 009.986 4.75zm0 6.25a2.5 2.5.0 112.5-2.5A2.5 2.5.0 019.986 11z"/></svg>